<?xml version="1.0" encoding="utf-8"?>
<!-- Generator: Adobe Illustrator 22.0.0, SVG Export Plug-In . SVG Version: 6.00 Build 0)  -->
<svg version="1.1" id="Слой_1" xmlns="http://www.w3.org/2000/svg" xmlns:xlink="http://www.w3.org/1999/xlink" x="0px" y="0px"
	 viewBox="0 0 84.16 78.73" style="enable-background:new 0 0 84.16 78.73;" xml:space="preserve">
<style type="text/css">
	.st0{fill:#598930;}
	.st1{fill:#CBEDF7;}
	.st2{opacity:0.63;}
	.st3{fill:#88C599;}
	.st4{fill:#34B8C8;}
	.st5{opacity:0.58;fill:#88C599;}
	.st6{fill:#3EA1CE;}
	.st7{fill-rule:evenodd;clip-rule:evenodd;fill:none;}
	.st8{fill:#F7F9F8;}
	.st9{fill-rule:evenodd;clip-rule:evenodd;fill:#FFFFFF;}
</style>
<path class="st0" d="M33.66,55.65c-1.13,0.6-1.91,1.74-1.92,3.01c0,0.02,0,0.04,0,0.05c0,3.43,3.43,6.51,8.89,8.65
	c0.85,0.33,1.81,0.33,2.66,0c5.46-2.14,8.89-5.23,8.89-8.65c0-0.01,0-0.02,0-0.02c-0.01-1.26-0.78-2.38-1.89-2.98l-6.63-3.55
	c-1.06-0.57-2.34-0.57-3.41-0.01L33.66,55.65z"/>
<path class="st1" d="M60.32,44.12H23.58c-7.43,0-14.05,1.7-18.37,6.33c4.31,4.63,10.94,7.6,18.37,7.6s14.05-1.7,18.37-6.33
	c4.31,4.63,10.94,6.33,18.37,6.33s14.05-2.97,18.37-7.6C74.37,45.82,67.75,44.12,60.32,44.12z"/>
<g class="st2">
	<path class="st3" d="M42.55,10.83c-5.41,4.76-8.87,12.07-8.87,20.28c0,1.95,0.2,3.85,0.57,5.68h16.6c0.37-1.83,0.57-3.73,0.57-5.68
		C51.42,22.9,47.96,15.59,42.55,10.83z"/>
	<path class="st3" d="M33.68,33.64c-5.74-4.6-13.67-7.71-20.27-7.6c-0.13,6.06,2.85,12.61,8.74,17.74s13.43,7.72,20.4,7.6"/>
	<path class="st3" d="M41.93,51.38c6.97,0.11,14.51-2.48,20.4-7.6s8.87-11.68,8.74-17.74c-6.51-0.11-14.57,3.13-20.27,7.6"/>
</g>
<path class="st4" d="M20.24,33.85c-0.1,4.28,2.12,8.9,6.51,12.52c4.39,3.62,10,5.44,15.2,5.36l-7.66-12.78
	C30.01,35.71,25.16,33.77,20.24,33.85z"/>
<path class="st5" d="M24.19,17.21c-1.24,3.89-0.56,8.68,2.27,13.11c2.83,4.43,7.2,7.54,11.73,8.8l-3.2-13.64
	C32.16,21.41,28.48,18.4,24.19,17.21z"/>
<path class="st5" d="M50.52,25.28l-3.14,13.54c4.49-1.26,8.82-4.35,11.62-8.76c2.8-4.4,3.46-9.16,2.22-13.01
	C56.97,18.24,53.32,21.24,50.52,25.28z"/>
<path class="st4" d="M49.56,39.05l-7.6,12.68c5.16,0.08,10.72-1.73,15.08-5.32c4.36-3.59,6.56-8.17,6.46-12.42
	C58.68,33.91,53.77,35.92,49.56,39.05z"/>
<path class="st6" d="M33.08,40.33c0,4.61,3.47,8.73,8.87,11.41c5.41-2.68,8.87-6.79,8.87-11.41s-3.47-8.73-8.87-11.41
	C36.54,31.6,33.08,35.71,33.08,40.33z"/>
<g>
	<rect x="2.8" y="0.28" class="st7" width="78" height="9.25"/>
	<path class="st8" d="M9.55,1.33C9.47,1.32,9.34,1.31,9.14,1.31L8.99,1.32c-0.11,0.01-0.2-0.04-0.26-0.15
		C8.67,1.07,8.64,0.95,8.64,0.8s0.03-0.27,0.09-0.36c0.06-0.11,0.15-0.15,0.26-0.13c0.3,0.03,0.71,0.05,1.21,0.05
		c0.49,0,1.04-0.02,1.64-0.05c0.14-0.02,0.25,0.02,0.34,0.13c0.08,0.09,0.12,0.21,0.12,0.36s-0.04,0.27-0.12,0.36
		c-0.09,0.11-0.2,0.16-0.34,0.15l-0.21-0.01c-0.28,0-0.47,0.01-0.57,0.02c-0.16,0.02-0.23,0.07-0.23,0.15v6.11
		c0,0.16,0.09,0.26,0.26,0.3c0.12,0.02,0.39,0.04,0.82,0.04h0.4c0.41,0,0.69-0.02,0.86-0.06c0.21-0.05,0.36-0.14,0.46-0.29
		c0.09-0.15,0.14-0.38,0.16-0.7c0.01-0.25,0-0.68-0.01-1.29c-0.02-0.14,0.04-0.25,0.16-0.33c0.11-0.07,0.25-0.11,0.42-0.11
		c0.16,0,0.3,0.04,0.4,0.11c0.12,0.08,0.17,0.19,0.15,0.33c-0.05,0.64-0.09,1.16-0.12,1.57c-0.03,0.59-0.03,1.04,0.01,1.32
		c0,0.22-0.05,0.36-0.15,0.42c-0.11,0.05-0.32,0.07-0.64,0.04C13.3,8.91,12.48,8.9,11.53,8.9c-0.95,0-1.79,0.01-2.54,0.04
		c-0.11,0.02-0.2-0.03-0.26-0.13S8.64,8.58,8.64,8.43s0.03-0.27,0.09-0.36c0.06-0.12,0.15-0.16,0.26-0.14
		c0.21,0.03,0.38,0.03,0.49,0c0.17-0.05,0.26-0.16,0.26-0.34V1.48C9.74,1.41,9.68,1.35,9.55,1.33z"/>
	<path class="st8" d="M29.55,3.48c0.53,0.62,0.8,1.39,0.8,2.32c0,0.92-0.27,1.68-0.8,2.3c-0.59,0.69-1.41,1.03-2.45,1.03
		c-1.05,0-1.87-0.34-2.46-1.03c-0.53-0.62-0.8-1.38-0.8-2.3c0-0.93,0.27-1.71,0.8-2.32c0.59-0.69,1.41-1.03,2.46-1.03
		C28.14,2.44,28.95,2.79,29.55,3.48z M25.47,4.17c-0.34,0.42-0.5,0.96-0.5,1.62c0,0.64,0.17,1.18,0.5,1.61
		c0.39,0.49,0.93,0.73,1.63,0.73c0.68,0,1.21-0.24,1.61-0.73c0.34-0.43,0.52-0.97,0.52-1.61c0-0.66-0.17-1.2-0.52-1.62
		c-0.39-0.48-0.93-0.72-1.61-0.72C26.39,3.45,25.85,3.69,25.47,4.17z"/>
	<path class="st8" d="M40.18,3.72c-0.11-0.06-0.28-0.08-0.5-0.06c-0.13,0.02-0.24-0.03-0.32-0.14c-0.07-0.09-0.11-0.21-0.11-0.36
		c0-0.14,0.04-0.26,0.11-0.36c0.08-0.11,0.18-0.16,0.32-0.14c0.31,0.02,0.51-0.08,0.59-0.29c0.09-0.21,0.11-0.69,0.07-1.43
		c-0.03-0.14,0.01-0.25,0.13-0.33c0.11-0.07,0.25-0.11,0.42-0.11c0.16,0,0.3,0.04,0.41,0.11c0.13,0.08,0.18,0.19,0.15,0.33
		l-0.04,0.74c-0.02,0.45-0.01,0.71,0.01,0.81c0.03,0.13,0.12,0.18,0.27,0.18c0.38,0.02,0.72,0.04,1.02,0.04
		c0.34,0,0.68-0.01,1.02-0.04c0.14-0.02,0.25,0.03,0.33,0.13c0.08,0.09,0.12,0.21,0.12,0.36c0,0.14-0.04,0.26-0.12,0.36
		c-0.08,0.11-0.19,0.16-0.33,0.15c-0.35-0.02-0.72-0.04-1.11-0.04s-0.7,0.01-0.93,0.04c-0.13,0-0.2,0.03-0.23,0.08
		c-0.03,0.05-0.05,0.16-0.05,0.35v2.95c0,0.37,0.08,0.64,0.23,0.81c0.16,0.18,0.44,0.27,0.82,0.27c0.36,0,0.66-0.09,0.89-0.27
		c0.22-0.17,0.4-0.43,0.54-0.79c0.04-0.11,0.13-0.17,0.27-0.19c0.13-0.02,0.27,0,0.42,0.06s0.25,0.15,0.32,0.27
		c0.07,0.13,0.07,0.27,0,0.42c-0.32,0.64-0.72,1.07-1.2,1.29c-0.31,0.14-0.75,0.21-1.32,0.21c-0.66,0-1.16-0.17-1.52-0.52
		c-0.35-0.34-0.53-0.8-0.53-1.38V4.1C40.33,3.92,40.28,3.79,40.18,3.72z"/>
	<path class="st8" d="M54.4,3.65c-0.1-0.05-0.24-0.05-0.42-0.01c-0.1,0.01-0.18-0.04-0.25-0.14c-0.05-0.09-0.07-0.21-0.07-0.35
		c0-0.15,0.02-0.27,0.07-0.36c0.06-0.1,0.14-0.14,0.25-0.13c0.16,0.02,0.43,0.02,0.81,0.02c0.35,0,0.64-0.01,0.87-0.02v4.59
		c0,0.32,0.12,0.55,0.35,0.7c0.19,0.12,0.42,0.18,0.7,0.18c0.37,0,0.69-0.07,0.96-0.21c0.3-0.14,0.54-0.35,0.71-0.62V3.87
		c0-0.13-0.05-0.21-0.16-0.25c-0.09-0.03-0.24-0.03-0.43,0.01c-0.12,0.01-0.21-0.04-0.27-0.14c-0.05-0.09-0.08-0.21-0.08-0.35
		s0.03-0.26,0.08-0.35c0.06-0.11,0.15-0.16,0.27-0.14c0.2,0.02,0.46,0.04,0.79,0.04s0.62-0.01,0.89-0.04V7.6
		c0,0.2,0.06,0.31,0.19,0.35c0.08,0.03,0.22,0.03,0.43-0.01h0.06c0.11-0.03,0.2,0.01,0.27,0.12c0.06,0.09,0.09,0.22,0.09,0.38
		s-0.03,0.29-0.09,0.39c-0.07,0.11-0.16,0.15-0.27,0.13c-0.21-0.02-0.47-0.04-0.77-0.04s-0.59,0.01-0.87,0.04
		c-0.03-0.14-0.07-0.23-0.13-0.26c-0.05-0.04-0.11-0.03-0.2,0.02c-0.21,0.14-0.42,0.24-0.62,0.3c-0.24,0.08-0.52,0.12-0.83,0.12
		c-0.69,0-1.22-0.18-1.61-0.54c-0.36-0.35-0.54-0.81-0.54-1.38V3.94C54.57,3.8,54.52,3.7,54.4,3.65z"/>
	<path class="st8" d="M72.68,2.54c0.14,0.04,0.31,0.09,0.5,0.16c0.13,0.05,0.22,0.07,0.26,0.07c0.05-0.01,0.07-0.06,0.06-0.15
		c0-0.08,0.06-0.13,0.19-0.16s0.27-0.02,0.42,0.02c0.16,0.02,0.29,0.06,0.39,0.12c0.1,0.07,0.13,0.15,0.09,0.23
		c-0.08,0.24-0.11,0.53-0.11,0.87c0.01,0.3,0.04,0.56,0.11,0.8c0.04,0.11,0,0.21-0.11,0.29c-0.1,0.07-0.23,0.11-0.4,0.13
		c-0.17,0.02-0.32,0-0.43-0.05c-0.13-0.06-0.19-0.15-0.18-0.26c-0.01-0.41-0.12-0.7-0.34-0.88c-0.24-0.19-0.64-0.28-1.2-0.28
		c-0.43,0-0.76,0.07-0.98,0.21c-0.23,0.16-0.34,0.39-0.34,0.68c0,0.28,0.14,0.5,0.42,0.65c0.32,0.18,0.82,0.27,1.49,0.27
		c0.73,0,1.29,0.14,1.68,0.42c0.43,0.32,0.64,0.82,0.64,1.51c0,0.6-0.19,1.06-0.57,1.38c-0.43,0.37-1.11,0.55-2.03,0.55
		c-0.31,0-0.61-0.04-0.89-0.12c-0.16-0.04-0.35-0.1-0.57-0.19c-0.14-0.05-0.23-0.08-0.27-0.08c-0.05,0.01-0.08,0.05-0.07,0.14
		c0,0.08-0.06,0.14-0.19,0.19c-0.12,0.04-0.25,0.05-0.4,0.05C69.7,9.11,69.58,9.07,69.49,9c-0.1-0.08-0.13-0.18-0.09-0.3
		c0.05-0.23,0.08-0.51,0.08-0.86c-0.01-0.34-0.04-0.63-0.09-0.89c-0.05-0.13-0.02-0.23,0.08-0.3c0.09-0.07,0.23-0.11,0.4-0.13
		c0.16-0.02,0.3,0,0.42,0.05c0.13,0.05,0.18,0.13,0.18,0.23c-0.02,0.46,0.11,0.8,0.4,1.02c0.28,0.21,0.71,0.32,1.3,0.32
		c0.55,0,0.96-0.08,1.22-0.25c0.24-0.15,0.36-0.38,0.36-0.68s-0.12-0.53-0.35-0.68c-0.24-0.16-0.63-0.23-1.15-0.23
		c-0.73,0-1.33-0.12-1.78-0.35c-0.63-0.32-0.95-0.85-0.95-1.58c0-0.53,0.17-0.97,0.5-1.3c0.42-0.41,1.06-0.61,1.91-0.61
		C72.19,2.44,72.44,2.48,72.68,2.54z"/>
</g>
<rect x="5.22" y="75.76" class="st9" width="73.47" height="3"/>
<g>
</g>
<g>
</g>
<g>
</g>
<g>
</g>
<g>
</g>
</svg>
