<?xml version="1.0" encoding="iso-8859-1"?>
<!-- Generator: Adobe Illustrator 19.0.0, SVG Export Plug-In . SVG Version: 6.00 Build 0)  -->
<svg xmlns="http://www.w3.org/2000/svg" xmlns:xlink="http://www.w3.org/1999/xlink" version="1.1" id="Capa_1" x="0px" y="0px" viewBox="0 0 512 512" style="enable-background:new 0 0 512 512;" xml:space="preserve" width="512px" height="512px">
<g>
	<g>
		<path d="M428.719,63.242C387.936,22.46,333.713,0,276.04,0S164.142,22.46,123.36,63.242    c-40.361,40.362-62.776,93.883-63.234,150.892l-39.292,78.584c-1.756,3.512-0.513,7.784,2.856,9.804l36.429,21.858V440.36    c0,4.15,3.364,7.515,7.515,7.515h72.642v56.611c0,4.15,3.364,7.515,7.515,7.515s7.515-3.365,7.515-7.515V440.36    c0-4.15-3.364-7.515-7.515-7.515H75.147v-112.72c0-2.639-1.385-5.086-3.649-6.444l-34.111-20.467l36.966-73.932    c0.522-1.044,0.794-2.193,0.794-3.361c0-110.772,90.12-200.892,200.892-200.892s200.892,90.12,200.892,200.892    c0,62.247-28.164,119.964-77.27,158.356c-1.822,1.424-2.887,3.608-2.887,5.921v124.287c0,4.15,3.364,7.515,7.515,7.515    s7.515-3.365,7.515-7.515V383.823c50.992-41.246,80.157-102.228,80.157-167.901C491.961,158.247,469.502,104.024,428.719,63.242z" fill="#91DC5A"/>
	</g>
</g>
<g>
	<g>
		<path d="M420.994,200.307c-0.123-2.41-1.396-4.613-3.421-5.925c-12.512-8.102-26.635-13.014-41.098-14.68    c-1.692-14.648-6.765-28.826-14.771-41.19c-1.312-2.025-3.516-3.298-5.925-3.421c-14.668-0.751-29.438,1.927-42.934,7.747    c-8.624-11.607-19.935-21.322-33.386-28.198c-2.149-1.098-4.693-1.098-6.841,0c-13.454,6.878-24.767,16.594-33.392,28.205    c-13.501-5.822-28.253-8.506-42.928-7.754c-2.409,0.123-4.613,1.396-5.925,3.421c-8.012,12.374-13.06,26.506-14.758,41.144    c-14.438,1.661-28.547,6.589-41.111,14.725c-2.025,1.312-3.297,3.515-3.421,5.925c-1.844,36.107,16.446,69.757,47.733,87.821    c14.907,8.606,31.4,12.888,47.868,12.888c17.08,0,34.133-4.613,49.353-13.781c14.985,9.016,32.075,13.732,49.411,13.732    c4.515,0,9.048-0.32,13.563-0.966c4.108-0.588,6.962-4.396,6.372-8.504c-0.588-4.11-4.397-6.958-8.504-6.373    c-15.711,2.249-31.665-0.199-45.902-6.914c24.944-17.473,40.134-45.75,40.64-76.723c23.751-11.013,51.833-9.651,74.47,3.482    c0.11,28.952-15.096,55.569-40.345,70.146c-3.268,1.888-4.646,6.058-3.129,9.518c1.772,4.044,6.81,5.713,10.644,3.499    C404.548,270.063,422.837,236.413,420.994,200.307z M200.955,149.998c0.065,0,0.129,0,0.194,0c10.249,0,20.459,1.97,29.995,5.763    c-4.792,9.242-8.073,19.301-9.644,29.827c-9.875-3.868-20.246-6.02-30.664-6.475C192.319,168.861,195.756,158.951,200.955,149.998    z M186.332,275.111c-25.246-14.576-40.455-41.195-40.345-70.148c22.715-13.193,50.664-14.516,74.47-3.484    c0.504,30.977,15.698,59.257,40.644,76.731C237.331,289.468,209.548,288.514,186.332,275.111z M276.04,269.905    c-25.128-14.38-40.579-40.862-40.579-70.015c0-29.153,15.451-55.635,40.579-70.015c25.128,14.38,40.579,40.862,40.579,70.015    C316.619,229.043,301.168,255.525,276.04,269.905z M330.58,185.596c-1.571-10.53-4.852-20.592-9.646-29.837    c9.536-3.793,19.757-5.76,30.003-5.76c0.063,0,0.124,0,0.187,0c5.198,8.954,8.644,18.894,10.125,29.158    C350.818,179.603,340.441,181.738,330.58,185.596z" fill="#91DC5A"/>
	</g>
</g>
<g>
	<g>
		<path d="M277.042,88.172h-1.002c-4.151,0-7.515,3.365-7.515,7.515s3.364,7.515,7.515,7.515h1.002c4.151,0,7.515-3.365,7.515-7.515    S281.193,88.172,277.042,88.172z" fill="#91DC5A"/>
	</g>
</g>
<g>
	<g>
		<path d="M373.23,112.219h-1.002c-4.151,0-7.515,3.365-7.515,7.515c0,4.15,3.364,7.515,7.515,7.515h1.002    c4.151,0,7.515-3.365,7.515-7.515C380.744,115.584,377.381,112.219,373.23,112.219z" fill="#91DC5A"/>
	</g>
</g>
<g>
	<g>
		<path d="M188.869,112.219h-1.002c-4.151,0-7.515,3.365-7.515,7.515c0,4.15,3.364,7.515,7.515,7.515h1.002    c4.151,0,7.515-3.365,7.515-7.515C196.384,115.584,193.021,112.219,188.869,112.219z" fill="#91DC5A"/>
	</g>
</g>
<g>
	<g>
		<path d="M228.948,96.188h-1.002c-4.151,0-7.515,3.365-7.515,7.515c0,4.15,3.364,7.515,7.515,7.515h1.002    c4.151,0,7.515-3.365,7.515-7.515C236.462,99.552,233.099,96.188,228.948,96.188z" fill="#91DC5A"/>
	</g>
</g>
<g>
	<g>
		<path d="M325.136,96.188h-1.002c-4.151,0-7.515,3.365-7.515,7.515c0,4.15,3.364,7.515,7.515,7.515h1.002    c4.151,0,7.515-3.365,7.515-7.515C332.65,99.552,329.287,96.188,325.136,96.188z" fill="#91DC5A"/>
	</g>
</g>
<g>
	<g>
		<path d="M256.001,367.718h56.11c15.193,0,27.554-12.36,27.554-27.554s-12.361-27.554-27.554-27.554h-92.18    c-4.151,0-7.515,3.365-7.515,7.515s3.364,7.515,7.515,7.515h92.18c6.906,0,12.524,5.618,12.524,12.524    s-5.618,12.524-12.524,12.524h-56.11c-15.193,0-27.554,12.36-27.554,27.554s12.361,27.554,27.554,27.554h32.063    c6.906,0,12.524,5.618,12.524,12.524s-5.618,12.524-12.524,12.524h-20.039c-4.151,0-7.515,3.365-7.515,7.515    c0,4.15,3.364,7.515,7.515,7.515h20.039c15.193,0,27.554-12.36,27.554-27.554s-12.361-27.554-27.554-27.554h-32.063    c-6.907,0-12.524-5.618-12.524-12.524S249.094,367.718,256.001,367.718z" fill="#91DC5A"/>
	</g>
</g>
<g>
</g>
<g>
</g>
<g>
</g>
<g>
</g>
<g>
</g>
<g>
</g>
<g>
</g>
<g>
</g>
<g>
</g>
<g>
</g>
<g>
</g>
<g>
</g>
<g>
</g>
<g>
</g>
<g>
</g>
</svg>
