<?xml version="1.0" encoding="iso-8859-1"?>
<!-- Generator: Adobe Illustrator 19.0.0, SVG Export Plug-In . SVG Version: 6.00 Build 0)  -->
<svg xmlns="http://www.w3.org/2000/svg" xmlns:xlink="http://www.w3.org/1999/xlink" version="1.1" id="Capa_1" x="0px" y="0px" viewBox="0 0 512 512" style="enable-background:new 0 0 512 512;" xml:space="preserve" width="512px" height="512px">
<g>
	<g>
		<path d="M460.8,149.333H196.243c5.369-7.136,8.557-16.002,8.557-25.6c0-23.526-19.14-42.667-42.667-42.667H76.8    c-23.526,0-42.667,19.14-42.667,42.667c0,9.886,3.389,18.989,9.053,26.231C18.745,153.822,0,175.023,0,200.533    c0,28.237,22.963,51.2,51.2,51.2h16.219l-6.443,67.655c-0.006,0.062-0.013,0.123-0.018,0.184l-9.716,102.016    c-0.452,4.693,2.987,8.858,7.68,9.31c0.282,0.026,0.555,0.034,0.819,0.034c4.352,0,8.064-3.311,8.482-7.723l9.363-98.307    l104.309-73.17h148.209l104.309,73.17l9.363,98.307c0.418,4.412,4.13,7.723,8.482,7.723c0.265,0,0.538-0.009,0.819-0.034    c4.693-0.452,8.132-4.617,7.68-9.31l-9.716-102.016c-0.004-0.062-0.012-0.123-0.018-0.184l-6.443-67.655H460.8    c28.237,0,51.2-22.963,51.2-51.2S489.037,149.333,460.8,149.333z M76.8,98.133h85.333c11.123,0,20.608,7.135,24.132,17.067    h-24.132c-4.719,0-8.533,3.823-8.533,8.533c0,4.71,3.814,8.533,8.533,8.533h24.132c-3.523,9.931-13.009,17.067-24.132,17.067H76.8    c-11.123,0-20.608-7.135-24.132-17.067H76.8c4.719,0,8.533-3.823,8.533-8.533c0-4.71-3.814-8.533-8.533-8.533H52.668    C56.192,105.269,65.677,98.133,76.8,98.133z M79.714,302.562l4.841-50.829h67.621L79.714,302.562z M432.286,302.562    l-72.462-50.829h67.621L432.286,302.562z M460.8,234.667h-25.398c-0.092-0.002-0.185-0.001-0.278,0H76.851    c-0.075-0.001-0.149-0.001-0.223,0H51.2c-15.879,0-29.256-10.893-33.054-25.6h75.72c4.719,0,8.533-3.823,8.533-8.533    S98.586,192,93.867,192h-75.72c3.798-14.707,17.175-25.6,33.054-25.6h25.6h85.333H460.8c15.879,0,29.256,10.893,33.054,25.6    h-75.72c-4.719,0-8.533,3.823-8.533,8.533s3.814,8.533,8.533,8.533h75.72C490.056,223.774,476.679,234.667,460.8,234.667z" fill="#91DC5A"/>
	</g>
</g>
<g>
</g>
<g>
</g>
<g>
</g>
<g>
</g>
<g>
</g>
<g>
</g>
<g>
</g>
<g>
</g>
<g>
</g>
<g>
</g>
<g>
</g>
<g>
</g>
<g>
</g>
<g>
</g>
<g>
</g>
</svg>
